<?xml version="1.0" standalone="no"?>
<!DOCTYPE svg PUBLIC "-//W3C//DTD SVG 20010904//EN"
 "http://www.w3.org/TR/2001/REC-SVG-20010904/DTD/svg10.dtd">
<svg version="1.0" xmlns="http://www.w3.org/2000/svg"
 width="512.000000pt" height="512.000000pt" viewBox="0 0 512.000000 512.000000"
 preserveAspectRatio="xMidYMid meet">

<g transform="translate(0.000000,512.000000) scale(0.100000,-0.100000)"
fill="#000000" stroke="none">
<path d="M4628 4733 l-388 -387 -173 172 c-201 198 -230 217 -342 215 -38 -1
-346 -42 -683 -92 -542 -79 -618 -93 -655 -115 -23 -13 -120 -103 -216 -200
-161 -162 -173 -177 -166 -203 10 -43 34 -63 73 -63 32 0 50 15 206 169 94 93
180 171 191 175 11 3 300 46 643 96 570 83 625 89 655 76 17 -8 105 -88 195
-178 l162 -163 -93 -93 -93 -93 -50 23 c-74 34 -198 32 -275 -5 -63 -31 -126
-93 -160 -159 -34 -66 -38 -194 -8 -273 30 -80 104 -154 184 -184 83 -32 207
-26 281 12 67 34 138 114 161 180 26 75 23 188 -5 251 l-23 50 93 93 93 93
163 -162 c90 -90 171 -178 178 -196 14 -31 8 -80 -76 -659 -50 -345 -97 -638
-105 -652 -7 -14 -79 -91 -158 -169 l-144 -144 -5 67 c-8 88 -44 147 -115 187
-117 66 -247 40 -312 -61 -17 -26 -31 -50 -31 -53 0 -3 -85 -180 -190 -392
l-189 -387 -40 21 c-38 19 -58 20 -326 20 -265 0 -289 -1 -324 -20 -51 -26
-97 -82 -110 -136 -7 -27 -11 -196 -11 -471 l0 -429 -168 -166 c-103 -103
-178 -169 -195 -173 -15 -4 -44 -4 -65 0 -33 6 -137 106 -921 888 -486 485
-896 900 -912 921 -31 42 -38 90 -18 129 6 12 393 405 860 872 763 764 849
853 849 882 0 44 -29 76 -69 76 -30 0 -107 -74 -897 -864 -800 -800 -866 -868
-885 -919 -27 -72 -22 -155 14 -225 35 -68 1820 -1852 1886 -1885 62 -31 135
-36 206 -15 54 15 70 28 199 155 l141 138 41 -43 c25 -26 57 -48 80 -54 23 -7
146 -11 307 -11 290 0 313 4 368 56 l27 26 63 -52 c116 -94 216 -134 379 -151
60 -6 157 -10 216 -7 97 3 108 6 125 27 23 28 24 69 4 97 -13 20 -26 22 -197
27 -147 4 -196 9 -249 26 -78 25 -171 83 -245 153 l-54 51 0 437 0 437 226
464 c124 255 233 472 241 482 25 26 88 23 118 -8 l25 -24 0 -344 0 -344 23
-21 c23 -22 26 -22 438 -22 387 0 416 -1 445 -19 17 -10 36 -33 44 -50 12 -29
2 -73 -130 -589 -78 -306 -147 -565 -152 -575 -19 -36 -58 -51 -141 -53 -70
-2 -84 -5 -99 -24 -23 -29 -23 -72 1 -101 18 -22 26 -24 109 -23 59 0 104 6
135 18 49 18 121 88 138 134 14 37 287 1101 295 1150 14 89 -43 196 -134 250
l-47 27 -387 3 -388 3 0 137 0 137 211 210 c116 116 219 227 230 247 22 43 25
58 129 778 54 371 78 568 74 595 -13 85 -40 122 -216 301 l-172 175 387 387
c419 420 415 415 362 467 -52 53 -47 57 -467 -362z m-820 -789 c22 -6 21 -8
-18 -50 -43 -46 -46 -59 -29 -97 11 -25 47 -47 75 -47 8 0 34 18 59 41 l44 40
7 -35 c21 -116 -65 -216 -186 -216 -128 0 -211 111 -175 235 27 95 129 154
223 129z m-646 -2561 c17 -15 18 -44 18 -505 0 -475 -1 -489 -20 -508 -19 -19
-33 -20 -272 -20 -139 0 -258 4 -264 8 -32 21 -34 52 -34 524 0 412 2 476 16
496 15 22 18 22 276 22 229 0 264 -2 280 -17z"/>
<path d="M2839 1181 c-17 -13 -23 -29 -23 -56 0 -69 71 -99 119 -50 67 66 -23
165 -96 106z"/>
<path d="M1938 2732 c-711 -710 -798 -801 -798 -828 0 -38 38 -76 76 -76 22
-1 165 138 825 798 727 727 799 802 799 831 0 41 -33 73 -74 73 -27 0 -120
-89 -828 -798z"/>
<path d="M2127 2102 c-636 -637 -617 -613 -562 -667 54 -55 30 -74 667 563
477 476 588 592 588 613 0 41 -36 79 -73 79 -29 0 -89 -57 -620 -588z"/>
</g>
</svg>
